<svg version="1.1" xmlns="http://www.w3.org/2000/svg" xmlns:xlink="http://www.w3.org/1999/xlink" x="0px" y="0px"
	 viewBox="0 0 32 32" style="enable-background:new 0 0 32 32;" xml:space="preserve">
<style type="text/css">
	.st0{fill:#044123;}
	.st1{fill:#FFFFFF;}
	.st2{display:none;}
	.st3{display:inline;fill:#D3519D;fill-opacity:0.46;}
	.st4{display:inline;opacity:0.45;fill:#D3519D;}
</style>
<g id="Layer_1">
	<g>
		<path class="st0" d="M0,32V0l21.28,0C27.2,0.01,32,4.81,32,10.73V32H0z"/>
	</g>
	<g>
		<g>
			<g>
				<g>
					<path class="st1" d="M15,17h-4c0,0,0-1.05,0-2.44c0-1.51,0.64-2.8,1.82-3.61c0.9-0.62,2.1-0.95,3.47-0.95H24v4h-7.21
						C15.5,14,15,14.63,15,15.7C15,16.43,15,17,15,17z"/>
				</g>
			</g>
		</g>
		<g>
			<g>
				<g>
					<path class="st1" d="M17,16h4c0,0,0,1.05,0,2.44c0,1.51-0.64,2.8-1.82,3.61c-0.9,0.62-2.1,0.95-3.47,0.95H8v-4h7.21
						C16.5,19,17,18.37,17,17.3C17,16.57,17,16,17,16z"/>
				</g>
			</g>
		</g>
	</g>
</g>
<g id="Layer_2" class="st2">
	<rect x="8" y="8" class="st3" width="16" height="16"/>
</g>
</svg>
